<?xml version="1.0" encoding="UTF-8"?>
<mxfile host="app.diagrams.net">
  <diagram name="Chaos Engineering & DR">
    <mxGraphModel dx="1200" dy="800" grid="1" gridSize="10" guides="1">
      <root>
        <mxCell id="0"/>
        <mxCell id="1" parent="0"/>
        <mxCell id="2" value="Chaos Engineering & DR - diagram placeholder" style="text;html=1;" vertex="1" parent="1">
          <mxGeometry x="160" y="80" width="400" height="80" as="geometry"/>
        </mxCell>
      </root>
    </mxGraphModel>
  </diagram>
</mxfile>